<svg width="118" height="20" viewBox="0 0 118 20" fill="none" xmlns="http://www.w3.org/2000/svg">
<path d="M13.8139 0.818181H18.75L16.8146 12.4659C16.5897 13.8509 16.063 15.0494 15.2344 16.0614C14.4117 17.0676 13.3641 17.8459 12.0916 18.3963C10.8191 18.9408 9.40459 19.2131 7.84801 19.2131C6.27959 19.2131 4.95384 18.9408 3.87074 18.3963C2.78764 17.8459 2.00047 17.0676 1.50923 16.0614C1.02391 15.0494 0.893703 13.8509 1.11861 12.4659L3.05398 0.818181H7.99006L6.12571 12.0398C6.03693 12.602 6.08132 13.1022 6.25888 13.5401C6.43643 13.9781 6.72349 14.3243 7.12003 14.5788C7.51657 14.8274 7.99598 14.9517 8.55824 14.9517C9.12642 14.9517 9.65021 14.8274 10.1296 14.5788C10.6149 14.3243 11.0174 13.9781 11.337 13.5401C11.6566 13.1022 11.8608 12.602 11.9496 12.0398L13.8139 0.818181ZM26.1741 0.818181L28.2693 6.10938H28.4113L32.3176 0.818181H38.0349L31.1102 9.90909L35.2295 19H29.7252L27.5235 13.6023H27.3815L23.4042 19H17.6514L24.7536 9.90909L20.8474 0.818181H26.1741ZM45.0994 0.818181L42.081 19H37.1449L40.1634 0.818181H45.0994ZM44.4203 19L47.4387 0.818181H55.3223C56.7072 0.818181 57.8406 1.00462 58.7225 1.37749C59.6103 1.75035 60.2376 2.27711 60.6046 2.95774C60.9775 3.63838 61.0869 4.44034 60.9331 5.36364C60.8147 6.02652 60.5602 6.63317 60.1696 7.18359C59.7849 7.7281 59.2966 8.18975 58.7047 8.56854C58.1188 8.94141 57.4648 9.19886 56.7427 9.34091L56.7072 9.51847C57.4885 9.54214 58.1691 9.73745 58.7491 10.1044C59.3291 10.4654 59.7553 10.9685 60.0275 11.6136C60.2998 12.2528 60.3649 12.9986 60.2228 13.8509C60.0571 14.8452 59.6517 15.73 59.0066 16.5053C58.3614 17.2807 57.524 17.8903 56.4941 18.3342C55.4643 18.7781 54.2924 19 52.9785 19H44.4203ZM50.0311 15.0582H52.3393C53.1561 15.0582 53.7982 14.9014 54.2658 14.5877C54.7393 14.274 55.0204 13.8153 55.1092 13.2116C55.1802 12.7855 55.1447 12.4245 55.0027 12.1286C54.8606 11.8326 54.6209 11.6077 54.2836 11.4538C53.9462 11.3 53.523 11.223 53.014 11.223H50.6348L50.0311 15.0582ZM51.1674 8.16903H53.1916C53.6177 8.16903 54.0083 8.10097 54.3635 7.96484C54.7186 7.82872 55.0115 7.63044 55.2424 7.37003C55.4732 7.10961 55.6182 6.79593 55.6774 6.42898C55.7662 5.8608 55.63 5.42874 55.269 5.13281C54.9139 4.83688 54.4345 4.68892 53.8308 4.68892H51.7356L51.1674 8.16903ZM67.7246 19.2486C66.245 19.2486 65.0257 18.9556 64.0669 18.3697C63.1141 17.7778 62.4453 16.9551 62.0605 15.9016C61.6758 14.8422 61.5989 13.6141 61.8297 12.2173C62.0605 10.8205 62.5429 9.59541 63.2768 8.5419C64.0107 7.48248 64.9547 6.6598 66.1088 6.07386C67.263 5.48201 68.5828 5.18608 70.0684 5.18608C71.5421 5.18608 72.7554 5.48201 73.7083 6.07386C74.6671 6.6598 75.3388 7.48248 75.7235 8.5419C76.1142 9.59541 76.1941 10.8205 75.9632 12.2173C75.7324 13.6141 75.2471 14.8422 74.5073 15.9016C73.7675 16.9551 72.8205 17.7778 71.6664 18.3697C70.5182 18.9556 69.2042 19.2486 67.7246 19.2486ZM68.3283 15.6264C68.7544 15.6264 69.1421 15.4873 69.4913 15.2092C69.8464 14.931 70.1483 14.5344 70.3968 14.0195C70.6513 13.5046 70.8378 12.892 70.9561 12.1818C71.0745 11.4657 71.0923 10.8531 71.0094 10.3441C70.9266 9.82919 70.7549 9.43265 70.4945 9.15447C70.2341 8.8763 69.8908 8.73722 69.4647 8.73722C69.0385 8.73722 68.6479 8.8763 68.2928 9.15447C67.9377 9.43265 67.6358 9.82919 67.3873 10.3441C67.1387 10.8531 66.9552 11.4657 66.8368 12.1818C66.7185 12.892 66.6977 13.5046 66.7747 14.0195C66.8575 14.5344 67.0292 14.931 67.2896 15.2092C67.5559 15.4873 67.9022 15.6264 68.3283 15.6264ZM83.3496 19.2486C81.87 19.2486 80.6507 18.9556 79.6919 18.3697C78.7391 17.7778 78.0703 16.9551 77.6855 15.9016C77.3008 14.8422 77.2239 13.6141 77.4547 12.2173C77.6855 10.8205 78.1679 9.59541 78.9018 8.5419C79.6357 7.48248 80.5797 6.6598 81.7338 6.07386C82.888 5.48201 84.2078 5.18608 85.6934 5.18608C87.1671 5.18608 88.3804 5.48201 89.3333 6.07386C90.2921 6.6598 90.9638 7.48248 91.3485 8.5419C91.7392 9.59541 91.8191 10.8205 91.5882 12.2173C91.3574 13.6141 90.8721 14.8422 90.1323 15.9016C89.3925 16.9551 88.4455 17.7778 87.2914 18.3697C86.1432 18.9556 84.8292 19.2486 83.3496 19.2486ZM83.9533 15.6264C84.3794 15.6264 84.7671 15.4873 85.1163 15.2092C85.4714 14.931 85.7733 14.5344 86.0218 14.0195C86.2763 13.5046 86.4628 12.892 86.5811 12.1818C86.6995 11.4657 86.7173 10.8531 86.6344 10.3441C86.5516 9.82919 86.3799 9.43265 86.1195 9.15447C85.8591 8.8763 85.5158 8.73722 85.0897 8.73722C84.6635 8.73722 84.2729 8.8763 83.9178 9.15447C83.5627 9.43265 83.2608 9.82919 83.0123 10.3441C82.7637 10.8531 82.5802 11.4657 82.4618 12.1818C82.3435 12.892 82.3227 13.5046 82.3997 14.0195C82.4825 14.5344 82.6542 14.931 82.9146 15.2092C83.1809 15.4873 83.5272 15.6264 83.9533 15.6264ZM106.396 9.80256H101.993C102.017 9.51847 101.966 9.2758 101.842 9.07457C101.718 8.87334 101.543 8.71946 101.318 8.61293C101.099 8.50639 100.851 8.45312 100.573 8.45312C100.087 8.45312 99.6464 8.56262 99.2498 8.7816C98.8533 8.99467 98.6313 9.2758 98.584 9.625C98.5544 9.76113 98.5988 9.88838 98.7172 10.0067C98.8355 10.1251 99.1462 10.2346 99.6493 10.3352L102.348 10.8324C103.698 11.081 104.68 11.5337 105.296 12.1907C105.917 12.8417 106.142 13.7029 105.97 14.7741C105.811 15.7034 105.402 16.5024 104.745 17.1712C104.088 17.84 103.254 18.3549 102.242 18.7159C101.235 19.071 100.123 19.2486 98.9036 19.2486C96.7551 19.2486 95.1453 18.8195 94.074 17.9613C93.0087 17.1031 92.5234 15.9815 92.6181 14.5966H97.3766C97.3884 15.0405 97.5364 15.3749 97.8205 15.5998C98.1105 15.8188 98.4952 15.9342 98.9746 15.946C99.4954 15.9638 99.9512 15.8602 100.342 15.6353C100.732 15.4045 100.951 15.1174 100.999 14.7741C101.017 14.5788 100.931 14.4309 100.741 14.3303C100.558 14.2296 100.206 14.129 99.6848 14.0284L97.3411 13.6023C95.9917 13.3596 95.0092 12.8743 94.3936 12.1463C93.7781 11.4124 93.565 10.4773 93.7544 9.34091C93.9083 8.43537 94.2753 7.67483 94.8553 7.0593C95.4412 6.44377 96.2106 5.97917 97.1635 5.66548C98.1164 5.34588 99.2173 5.18608 100.466 5.18608C102.508 5.18608 104.053 5.59742 105.1 6.4201C106.154 7.23686 106.586 8.36435 106.396 9.80256ZM117.543 5.36364L116.939 8.91477H107.955L108.558 5.36364H117.543ZM110.831 2.09659H115.732L113.654 14.6143C113.625 14.8037 113.63 14.9635 113.672 15.0938C113.713 15.218 113.796 15.3127 113.92 15.3778C114.051 15.437 114.222 15.4666 114.435 15.4666C114.577 15.4666 114.752 15.4489 114.959 15.4134C115.166 15.3719 115.323 15.3423 115.43 15.3246L115.572 18.7692C115.323 18.8402 114.989 18.9201 114.569 19.0089C114.154 19.1036 113.672 19.1657 113.121 19.1953C111.973 19.2486 111.038 19.1272 110.316 18.8313C109.6 18.5354 109.103 18.0737 108.825 17.4464C108.552 16.8131 108.505 16.023 108.683 15.076L110.831 2.09659Z" fill="black"/>
</svg>
